<svg fill="none" height="48" viewBox="0 0 48 48" width="48" xmlns="http://www.w3.org/2000/svg"><path d="m0 0h48v48h-48z" fill="#fff" fill-opacity=".01"/><path clip-rule="evenodd" d="m24 3v3.15z" fill="#000" fill-rule="evenodd"/><path d="m24 3v3.15" stroke="#000" stroke-linecap="round" stroke-linejoin="round" stroke-width="4"/><path clip-rule="evenodd" d="m38.8492 9.15076-2.2273 2.22734z" fill="#000" fill-rule="evenodd"/><path d="m38.8492 9.15076-2.2273 2.22734" stroke="#000" stroke-linecap="round" stroke-linejoin="round" stroke-width="4"/><path clip-rule="evenodd" d="m45 24h-3.15z" fill="#000" fill-rule="evenodd"/><path d="m45 24h-3.15" stroke="#000" stroke-linecap="round" stroke-linejoin="round" stroke-width="4"/><path clip-rule="evenodd" d="m38.8492 38.8492-2.2273-2.2273z" fill="#000" fill-rule="evenodd"/><path d="m38.8492 38.8492-2.2273-2.2273" stroke="#000" stroke-linecap="round" stroke-linejoin="round" stroke-width="4"/><path clip-rule="evenodd" d="m24 45v-3.15z" fill="#000" fill-rule="evenodd"/><path d="m24 45v-3.15" stroke="#000" stroke-linecap="round" stroke-linejoin="round" stroke-width="4"/><path clip-rule="evenodd" d="m9.15076 38.8492 2.22734-2.2273z" fill="#000" fill-rule="evenodd"/><path d="m9.15076 38.8492 2.22734-2.2273" stroke="#000" stroke-linecap="round" stroke-linejoin="round" stroke-width="4"/><path clip-rule="evenodd" d="m3 24h3.15z" fill="#000" fill-rule="evenodd"/><path d="m3 24h3.15" stroke="#000" stroke-linecap="round" stroke-linejoin="round" stroke-width="4"/><path clip-rule="evenodd" d="m9.15076 9.15076 2.22734 2.22734z" fill="#000" fill-rule="evenodd"/><g stroke="#000" stroke-linejoin="round" stroke-width="4"><path d="m9.15076 9.15076 2.22734 2.22734" stroke-linecap="round"/><path d="m24 36c6.6274 0 12-5.3726 12-12s-5.3726-12-12-12-12 5.3726-12 12 5.3726 12 12 12z" fill="#2f88ff"/></g></svg>